<svg id="Capa_1" data-name="Capa 1" xmlns="http://www.w3.org/2000/svg" viewBox="0 0 37 37"><defs><style>.cls-1{fill:#fff;}</style></defs><path id="Icon_awesome-facebook-square" data-name="Icon awesome-facebook-square" class="cls-1" d="M32.61.58H4.33A3.85,3.85,0,0,0,.47,4.43V32.72a3.86,3.86,0,0,0,3.86,3.86h11V24.34H10.29V18.58h5.07v-4.4c0-5,3-7.75,7.52-7.75a30.17,30.17,0,0,1,4.46.39v4.9H24.83c-2.47,0-3.25,1.54-3.25,3.11v3.75h5.53l-.88,5.76H21.58V36.58h11a3.86,3.86,0,0,0,3.86-3.86V4.43A3.85,3.85,0,0,0,32.61.58Z"/></svg>