<svg id="Capa_1" data-name="Capa 1" xmlns="http://www.w3.org/2000/svg" viewBox="0 0 37 37"><defs><style>.cls-1{fill:#fff;}</style></defs><path id="Icon_simple-instagram" data-name="Icon simple-instagram" class="cls-1" d="M18.5.5c-4.89,0-5.5,0-7.42.11a13.33,13.33,0,0,0-4.37.83A9,9,0,0,0,3.52,3.52,8.91,8.91,0,0,0,1.44,6.71a13.33,13.33,0,0,0-.83,4.37C.52,13,.5,13.61.5,18.5s0,5.5.11,7.42a13.33,13.33,0,0,0,.83,4.37,9,9,0,0,0,2.08,3.19,8.75,8.75,0,0,0,3.19,2.07,13.09,13.09,0,0,0,4.37.84c1.92.09,2.53.11,7.42.11s5.5,0,7.42-.11a13.09,13.09,0,0,0,4.37-.84,9.19,9.19,0,0,0,5.27-5.26,13.33,13.33,0,0,0,.83-4.37c.09-1.92.11-2.53.11-7.42s0-5.5-.11-7.42a13.09,13.09,0,0,0-.84-4.37,9.18,9.18,0,0,0-5.26-5.27A13.33,13.33,0,0,0,25.92.61C24,.52,23.39.5,18.5.5Zm0,3.24c4.8,0,5.38,0,7.27.11a9.69,9.69,0,0,1,3.34.62,5.9,5.9,0,0,1,3.42,3.41,9.78,9.78,0,0,1,.62,3.34c.09,1.9.1,2.47.1,7.28s0,5.38-.11,7.27a10,10,0,0,1-.63,3.34,5.92,5.92,0,0,1-3.42,3.42,9.84,9.84,0,0,1-3.35.62c-1.91.08-2.48.1-7.29.1s-5.38,0-7.29-.11a10.36,10.36,0,0,1-3.35-.63,5.59,5.59,0,0,1-2.07-1.35,5.47,5.47,0,0,1-1.35-2.07,10.15,10.15,0,0,1-.63-3.36c-.07-1.89-.09-2.47-.09-7.26s0-5.38.09-7.29a10,10,0,0,1,.63-3.35A5.31,5.31,0,0,1,5.74,5.75,5.3,5.3,0,0,1,7.81,4.42a10,10,0,0,1,3.34-.64c1.91-.06,2.47-.09,7.28-.09Zm0,5.52a9.24,9.24,0,1,0,9.24,9.24h0A9.24,9.24,0,0,0,18.5,9.26Zm0,15.24a6,6,0,1,1,6-6A6,6,0,0,1,18.5,24.5ZM30.27,8.89a2.16,2.16,0,1,1-2.16-2.16h0A2.17,2.17,0,0,1,30.27,8.89Z"/></svg>