<?xml version="1.0" encoding="UTF-8" standalone="no"?>
<!DOCTYPE svg PUBLIC "-//W3C//DTD SVG 1.1//EN" "http://www.w3.org/Graphics/SVG/1.1/DTD/svg11.dtd">
<!-- Created with Vectornator (http://vectornator.io/) -->
<svg height="100%" stroke-miterlimit="10" style="fill-rule:nonzero;clip-rule:evenodd;stroke-linecap:round;stroke-linejoin:round;" version="1.1" viewBox="0 0 272.8 258" width="100%" xml:space="preserve" xmlns="http://www.w3.org/2000/svg" xmlns:vectornator="http://vectornator.io" xmlns:xlink="http://www.w3.org/1999/xlink">
<defs/>
<g id="Untitled" vectornator:layerName="Untitled">
<path d="M187.6 108.8L85.3 108.8L85.3 91.7L187.6 91.7L187.6 100.3L187.6 108.8ZM179 27.8C172.8 27.8 167 29.6 161.9 32.5C156.9 29.6 151.1 27.8 144.9 27.8C141.9 27.8 139 28.2 136.2 29C133.5 28.3 130.8 27.8 127.9 27.8C121.7 27.8 116 29.6 110.9 32.5C105.9 29.6 100 27.8 93.8 27.8C75 27.8 59.7 43.1 59.7 61.9L59.7 79L76.8 79L76.8 61.9C76.8 52.5 84.4 44.8 93.9 44.8C95.4 44.8 96.9 45.1 98.3 45.4C95.6 50.3 93.9 55.8 93.9 61.8L93.9 78.9L111 78.9L111 61.9C111 52.5 118.6 44.8 128.1 44.8L128.1 78.9L145.2 78.9L145.2 44.8C154.6 44.8 162.3 52.4 162.3 61.9L162.3 79L179 79L179 61.9C179 55.9 177.3 50.4 174.6 45.5C176 45.1 177.5 44.9 179 44.9C188.4 44.9 196.1 52.5 196.1 62L196.1 79.1L213.2 79.1L213.2 61.9C213.1 43 197.9 27.8 179 27.8ZM140.1 8L140.1 0L132.7 0L132.7 8L124.7 8L124.7 15.5L132.7 15.5L132.7 23.5L140.1 23.5L140.1 15.5L148.2 15.5L148.2 8L140.1 8ZM221.7 121.5C221.7 141.7 214.7 160.2 203 174.8C196.2 144.3 169 121.5 136.5 121.5C116.1 121.5 97.8 130.5 85.3 144.7L85.3 121.5L0 121.5C0 196.9 61.1 258 136.4 258C211.7 258 272.8 196.9 272.8 121.6L221.7 121.6L221.7 121.5ZM18.4 138.6L68.2 138.6L68.2 189.8C68.2 203.1 72.1 215.5 78.7 226.1C46.7 208.3 23.8 176.3 18.4 138.6ZM136.4 240.9C108.2 240.9 85.2 218 85.2 189.7C85.2 161.4 108.1 138.6 136.4 138.6C164.7 138.6 187.5 161.5 187.5 189.6C181.7 194 175.4 197.6 168.6 200.4C169.7 197 170.5 193.5 170.5 189.7C170.5 170.4 155.2 155.6 136.4 155.6C117.6 155.6 102.3 170.8 102.3 189.7C102.3 208.6 117.5 223.8 136.4 223.8C187.1 223.8 229.2 186.9 237.3 138.6L254.6 138.6C246.4 196.4 196.5 240.9 136.4 240.9ZM153.5 189.7C153.5 199.1 145.9 206.7 136.5 206.7C127.1 206.7 119.5 199.1 119.5 189.7C119.5 180.3 127.1 172.7 136.5 172.7C145.9 172.7 153.5 180.3 153.5 189.7Z" fill="#ffffff" fill-rule="evenodd" opacity="1" stroke="none"/>
</g>
</svg>
