<?xml version="1.0" encoding="UTF-8" standalone="no"?>
<!DOCTYPE svg PUBLIC "-//W3C//DTD SVG 1.1//EN" "http://www.w3.org/Graphics/SVG/1.1/DTD/svg11.dtd">
<!-- Created with Vectornator (http://vectornator.io/) -->
<svg height="100%" stroke-miterlimit="10" style="fill-rule:nonzero;clip-rule:evenodd;stroke-linecap:round;stroke-linejoin:round;" version="1.1" viewBox="0 0 2000 1556" width="100%" xml:space="preserve" xmlns="http://www.w3.org/2000/svg" xmlns:vectornator="http://vectornator.io" xmlns:xlink="http://www.w3.org/1999/xlink">
<defs/>
<g id="Untitled" vectornator:layerName="Untitled">
<path d="M1784.23 1395.96L1784.23 1399.22L1787.28 1399.22C1787.85 1399.23 1788.42 1399.09 1788.91 1398.8C1789.32 1398.52 1789.55 1398.05 1789.53 1397.56C1789.55 1397.07 1789.31 1396.61 1788.91 1396.34C1788.42 1396.04 1787.85 1395.9 1787.28 1395.92L1784.23 1395.92L1784.23 1395.96ZM1787.31 1393.64C1788.62 1393.56 1789.91 1393.94 1790.97 1394.71C1791.83 1395.41 1792.31 1396.48 1792.25 1397.6C1792.29 1398.55 1791.92 1399.48 1791.22 1400.14C1790.41 1400.85 1789.38 1401.27 1788.3 1401.35L1792.38 1406.01L1789.24 1406.01L1785.48 1401.38L1784.27 1401.38L1784.27 1406.01L1781.64 1406.01L1781.64 1393.65L1787.35 1393.65L1787.31 1393.64ZM1786.5 1410.27C1787.87 1410.28 1789.24 1410 1790.51 1409.45C1791.72 1408.93 1792.83 1408.18 1793.77 1407.24C1794.71 1406.3 1795.46 1405.19 1795.98 1403.97C1797.06 1401.39 1797.06 1398.48 1795.98 1395.89C1795.46 1394.67 1794.71 1393.57 1793.77 1392.62C1792.83 1391.69 1791.72 1390.94 1790.51 1390.41C1789.23 1389.89 1787.87 1389.63 1786.5 1389.64C1785.1 1389.63 1783.71 1389.89 1782.41 1390.41C1781.17 1390.93 1780.03 1391.68 1779.07 1392.62C1776.12 1395.65 1775.26 1400.15 1776.89 1404.06C1777.39 1405.28 1778.13 1406.39 1779.07 1407.32C1780.03 1408.27 1781.17 1409.02 1782.41 1409.53C1783.7 1410.08 1785.09 1410.36 1786.5 1410.35M1786.5 1386.67C1790.08 1386.67 1793.53 1388.08 1796.09 1390.59C1797.32 1391.8 1798.31 1393.24 1798.98 1394.83C1800.39 1398.13 1800.39 1401.86 1798.98 1405.16C1798.29 1406.74 1797.31 1408.18 1796.09 1409.4C1794.84 1410.6 1793.38 1411.56 1791.79 1412.25C1790.11 1412.96 1788.31 1413.32 1786.5 1413.31C1784.66 1413.33 1782.83 1412.97 1781.14 1412.25C1779.53 1411.58 1778.06 1410.61 1776.8 1409.4C1775.58 1408.13 1774.62 1406.65 1773.95 1405.02C1772.54 1401.72 1772.54 1397.99 1773.95 1394.69C1774.63 1393.1 1775.61 1391.66 1776.84 1390.45C1778.08 1389.22 1779.56 1388.24 1781.18 1387.59C1782.88 1386.88 1784.7 1386.52 1786.54 1386.53M536.248 1338.96C536.248 1315.41 551.68 1296.05 576.902 1296.05C601.006 1296.05 617.271 1314.57 617.271 1338.96C617.271 1363.35 601.006 1381.87 576.902 1381.87C551.68 1381.87 536.248 1362.52 536.248 1338.96M644.746 1338.96L644.746 1271.93L615.605 1271.93L615.605 1288.26C606.362 1276.19 592.343 1268.62 573.277 1268.62C535.717 1268.62 506.241 1298.08 506.241 1339C506.241 1379.91 535.701 1409.37 573.277 1409.37C592.334 1409.37 606.362 1401.79 615.605 1389.73L615.605 1406.01L644.714 1406.01L644.714 1338.96L644.746 1338.96ZM1629.4 1338.96C1629.4 1315.41 1644.83 1296.05 1670.06 1296.05C1694.19 1296.05 1710.43 1314.57 1710.43 1338.96C1710.43 1363.35 1694.19 1381.87 1670.06 1381.87C1644.84 1381.87 1629.4 1362.52 1629.4 1338.96M1737.93 1338.96L1737.93 1218.12L1708.76 1218.12L1708.76 1288.26C1699.52 1276.19 1685.5 1268.62 1666.44 1268.62C1628.88 1268.62 1599.4 1298.08 1599.4 1339C1599.4 1379.91 1628.86 1409.37 1666.44 1409.37C1685.5 1409.37 1699.52 1401.79 1708.76 1389.73L1708.76 1406.01L1737.93 1406.01L1737.93 1338.96ZM1006.43 1294.67C1025.21 1294.67 1037.27 1306.45 1040.35 1327.18L970.814 1327.18C973.925 1307.83 985.674 1294.67 1006.44 1294.67M1007.02 1268.55C967.744 1268.55 940.268 1297.12 940.268 1338.92C940.268 1381.54 968.846 1409.3 1008.97 1409.3C1029.15 1409.3 1047.64 1404.26 1063.9 1390.52L1049.62 1368.92C1038.39 1377.9 1024.08 1382.94 1010.64 1382.94C991.855 1382.94 974.757 1374.24 970.552 1350.12L1070.06 1350.12C1070.35 1346.49 1070.64 1342.83 1070.64 1338.91C1070.35 1297.13 1044.51 1268.54 1007 1268.54M1358.84 1338.91C1358.84 1315.36 1374.27 1296.01 1399.49 1296.01C1423.6 1296.01 1439.86 1314.52 1439.86 1338.91C1439.86 1363.3 1423.6 1381.82 1399.49 1381.82C1374.27 1381.82 1358.83 1362.47 1358.83 1338.91M1467.33 1338.91L1467.33 1271.93L1438.2 1271.93L1438.2 1288.26C1428.93 1276.19 1414.94 1268.62 1395.88 1268.62C1358.32 1268.62 1328.84 1298.08 1328.84 1339C1328.84 1379.91 1358.3 1409.37 1395.88 1409.37C1414.94 1409.37 1428.93 1401.79 1438.2 1389.73L1438.2 1406.01L1467.34 1406.01L1467.34 1338.96L1467.33 1338.91ZM1194.27 1338.91C1194.27 1379.57 1222.57 1409.29 1265.76 1409.29C1285.95 1409.29 1299.4 1404.8 1313.94 1393.31L1299.94 1369.75C1289 1377.62 1277.51 1381.82 1264.83 1381.82C1241.57 1381.54 1224.46 1364.72 1224.46 1338.91C1224.46 1313.11 1241.57 1296.3 1264.83 1296.01C1277.48 1296.01 1288.97 1300.21 1299.94 1308.07L1313.94 1284.52C1299.37 1273.03 1285.92 1268.54 1265.76 1268.54C1222.57 1268.54 1194.27 1298.25 1194.27 1338.91M1569.95 1268.54C1553.14 1268.54 1542.19 1276.4 1534.62 1288.18L1534.62 1271.93L1505.74 1271.93L1505.74 1405.93L1534.91 1405.93L1534.91 1330.81C1534.91 1308.64 1544.44 1296.32 1563.49 1296.32C1569.73 1296.23 1575.92 1297.37 1581.71 1299.69L1590.7 1272.22C1584.25 1269.68 1575.84 1268.56 1569.93 1268.56M788.821 1282.58C774.801 1273.34 755.482 1268.56 734.171 1268.56C700.22 1268.56 678.362 1284.84 678.362 1311.46C678.362 1333.31 694.636 1346.79 724.602 1351L738.368 1352.96C754.347 1355.2 761.892 1359.41 761.892 1366.98C761.892 1377.34 751.277 1383.25 731.346 1383.25C711.162 1383.25 696.595 1376.8 686.772 1369.23L673.08 1391.95C689.059 1403.73 709.243 1409.35 731.101 1409.35C769.804 1409.35 792.234 1391.12 792.234 1365.61C792.234 1342.05 774.581 1329.73 745.415 1325.52L731.681 1323.53C719.066 1321.9 708.957 1319.36 708.957 1310.38C708.957 1300.58 718.486 1294.68 734.473 1294.68C751.579 1294.68 768.138 1301.13 776.254 1306.17L788.87 1282.61L788.821 1282.58ZM1164.83 1268.59C1148.02 1268.59 1137.07 1276.45 1129.54 1288.22L1129.54 1271.93L1100.66 1271.93L1100.66 1405.93L1129.8 1405.93L1129.8 1330.81C1129.8 1308.64 1139.33 1296.32 1158.38 1296.32C1164.61 1296.23 1170.81 1297.37 1176.6 1299.69L1185.58 1272.22C1179.13 1269.68 1170.72 1268.56 1164.82 1268.56M916.156 1271.93L868.504 1271.93L868.504 1231.27L839.044 1231.27L839.044 1271.93L811.863 1271.93L811.863 1298.56L839.044 1298.56L839.044 1359.69C839.044 1390.79 851.113 1409.31 885.586 1409.31C898.234 1409.31 912.8 1405.39 922.043 1398.94L913.625 1373.99C904.929 1379.03 895.4 1381.57 887.823 1381.57C873.256 1381.57 868.504 1372.59 868.504 1359.14L868.504 1298.59L916.156 1298.59L916.156 1271.93ZM480.472 1405.97L480.472 1321.86C480.472 1290.19 460.288 1268.88 427.749 1268.6C410.643 1268.31 392.998 1273.63 380.645 1292.44C371.402 1277.58 356.835 1268.6 336.357 1268.6C322.043 1268.6 308.056 1272.8 297.107 1288.49L297.107 1271.93L267.941 1271.93L267.941 1405.93L297.336 1405.93L297.336 1331.63C297.336 1308.37 310.237 1296.01 330.159 1296.01C349.511 1296.01 359.301 1308.62 359.301 1331.34L359.301 1405.92L388.761 1405.92L388.761 1331.61C388.761 1308.35 402.209 1295.99 421.552 1295.99C441.451 1295.99 450.947 1308.6 450.947 1331.32L450.947 1405.9L480.472 1405.97Z" fill="#ffffff" fill-rule="evenodd" opacity="1" stroke="none"/>
<path d="M1800.85 960.197L1800.85 940.601L1795.75 940.601L1789.84 954.049L1783.97 940.601L1778.85 940.601L1778.85 960.197L1782.48 960.197L1782.48 945.435L1788 958.172L1791.75 958.172L1797.27 945.402L1797.27 960.197L1800.87 960.197L1800.85 960.197ZM1768.48 960.197L1768.48 943.957L1775.01 943.957L1775.01 940.65L1758.32 940.65L1758.32 943.957L1764.85 943.957L1764.85 960.197L1768.44 960.197L1768.48 960.197Z" fill="#ffffff" fill-rule="evenodd" opacity="1" stroke="none"/>
<path d="M1220.82 1044.24L779.202 1044.24L779.202 250.588L1220.83 250.588L1220.82 1044.24Z" fill="#ededed" fill-rule="evenodd" opacity="1" stroke="none"/>
<path d="M807.2 647.431C807.2 486.439 882.581 343.026 999.963 250.605C911.111 180.543 801.214 142.519 688.063 142.686C409.329 142.686 183.383 368.665 183.383 647.431C183.383 926.198 409.329 1152.18 688.063 1152.18C801.217 1152.35 911.117 1114.32 999.971 1044.26C882.597 951.853 807.2 808.432 807.2 647.431" fill="#ededed" fill-rule="evenodd" opacity="1" stroke="none"/>
<path d="M1816.62 647.431C1816.62 926.198 1590.67 1152.18 1311.94 1152.18C1198.77 1152.34 1088.86 1114.32 999.988 1044.26C1117.4 951.836 1192.78 808.432 1192.78 647.431C1192.78 486.431 1117.4 343.026 999.988 250.605C1088.86 180.546 1198.77 142.522 1311.93 142.686C1590.66 142.686 1816.61 368.665 1816.61 647.431" fill="#e3e2e1" fill-rule="evenodd" opacity="1" stroke="none"/>
</g>
</svg>
