<?xml version="1.0" encoding="UTF-8" standalone="no"?>
<!DOCTYPE svg PUBLIC "-//W3C//DTD SVG 1.1//EN" "http://www.w3.org/Graphics/SVG/1.1/DTD/svg11.dtd">
<!-- Created with Vectornator (http://vectornator.io/) -->
<svg height="100%" stroke-miterlimit="10" style="fill-rule:nonzero;clip-rule:evenodd;stroke-linecap:round;stroke-linejoin:round;" version="1.1" viewBox="0 0 149.7 24.2" width="100%" xml:space="preserve" xmlns="http://www.w3.org/2000/svg" xmlns:vectornator="http://vectornator.io" xmlns:xlink="http://www.w3.org/1999/xlink">
<defs/>
<clipPath id="ArtboardFrame">
<rect height="24.2" width="149.7" x="0" y="0"/>
</clipPath>
<g clip-path="url(#ArtboardFrame)" id="Untitled" vectornator:layerName="Untitled">
<path d="M90.6 18.5L93.1 10.2L93.9 7.6L100.7 7.6C104.4 7.6 107.5 7.6 107.5 7.6C107.5 7.6 107 9.4 106.4 11.5C105.8 13.6 105.3 15.3 105.3 15.4C105.3 15.4 106.6 13.7 108.2 11.6L111 7.7L118 7.7C121.9 7.7 125 7.7 125 7.7C125 7.7 124.6 9.5 124.1 11.7C123.6 13.9 123.2 15.7 123.2 15.7C123.2 15.7 124.6 13.9 126.3 11.7L129.4 7.7L136.8 7.7C140.9 7.7 144.2 7.7 144.2 7.8C144.2 7.9 141.4 11.6 137.9 16.1L131.6 24.3L122.1 24.3C116.9 24.3 112.6 24.3 112.6 24.2C112.6 24.2 113 22.1 113.4 19.5C113.8 17 114.2 14.9 114.2 14.8C114.2 14.8 113 16.2 111.6 18.1C110.2 20 108.8 21.7 108.6 21.9C107.7 22.9 106.1 23.7 104.8 24.1C104.2 24.2 103.1 24.3 96.6 24.3L89.1 24.3L90.6 18.5L90.6 18.5ZM76.5 11.8C77.5 11.6 77.9 11.4 78.4 10.9C78.9 10.4 79.2 9.7 79.3 9C79.4 8.2 78.8 7.6 77.6 7.4C77.3 7.3 75.4 7.3 73.2 7.3L69.3 7.3L68.6 9.5C68.3 10.3 68.1 11 67.8 11.8C67.9 12 75.4 12 76.5 11.8ZM51.5 24.1C51.5 24.1 52.9 19.5 54.5 13.8C56.5 7.4 57.7 3.4 57.9 3C58.4 2.1 59.3 1.2 60.3 0.7C61.8 0 61.2 0 74.2 0L85.8 0L86.6 0.2C89.2 0.9 90.8 2.5 91.3 4.8C91.5 5.8 91.5 7.6 91.1 8.8C90.8 9.8 90.3 11 89.7 11.7C88.1 14 85.2 15.8 81.9 16.3L80.8 16.5L83.1 20.3L85.4 24.1L77.7 24.1C73.4 24.1 69.9 24.1 69.8 24.1C69.7 24.1 69.1 23 68.4 21.7C67.7 20.4 67.1 19.3 67 19.2C66.9 19.1 66.8 19.2 66.6 19.9C66 21.9 64.4 23.4 62.4 23.9C61.7 24.1 61.3 24.1 56.6 24.1C53.8 24.2 51.5 24.1 51.5 24.1ZM0 24.1C0 24.1 1.6 18.6 3.6 12L7.1 0L16.5 0L26 0L26 0.2C26 0.7 26.7 14.6 26.7 14.6C26.7 14.6 28.5 11.9 30.6 8.7C32.7 5.5 34.6 2.5 34.8 2.2C35.5 1.2 36.7 0.499999 38 0.0999996C38.7 0 39.2 0 47 0L55.2 0L55.1 0.2C55.1 0.3 53.5 5.7 51.5 12.3L48 24.1L41.3 24.1C37.2 24.1 34.6 24.1 34.6 24C34.6 23.9 35.3 21.2 36.1 18C37 14.7 37.6 12.1 37.6 12C37.6 12 35.8 14.7 33.6 18L29.6 24.1L24 24.1C20.3 24.1 18.3 24.1 18.3 24C18.3 23.8 17.3 12.1 17.3 11.9C17.3 11.8 16.7 13.7 16 16C15.3 18.3 14.6 20.5 14.5 20.9C14.1 21.7 12.9 22.9 12.1 23.4C10.8 24.1 10.5 24.1 5 24.1C2.2 24.2 0 24.1 0 24.1L0 24.1Z" fill="#efefef" fill-rule="evenodd" opacity="1" stroke="none"/>
<path d="M130.6 5.5C130.6 5.3 133.4 2.1 133.9 1.7C134.7 1.1 136.1 0.4 137 0.2C137.6 0.1 138.8 4.47035e-08 143.7 4.47035e-08C147.2 4.47035e-08 149.6 4.47035e-08 149.6 0.1C149.6 0.1 148.6 1.4 147.5 2.8L145.4 5.5L138 5.5C133.9 5.6 130.6 5.6 130.6 5.5ZM112.2 5.5C112.2 5.5 113.2 4.2 114.3 2.8L116.3 0.0999999L121.4 0.0999999C126.2 0.0999999 126.5 0.0999999 126.5 0.3C126.5 0.4 126.2 1.6 125.9 2.9C125.6 4.2 125.3 5.4 125.3 5.5C125.3 5.7 124.9 5.7 118.7 5.7C115.1 5.6 112.1 5.6 112.2 5.5L112.2 5.5ZM94.5 5.4C94.5 5.3 94.9 4.1 95.3 2.7C95.7 1.3 96.1 0.1 96.1 0.1C96.1 0.1 99.1 0.1 102.8 0.1C106.5 0.1 109.5 0.1 109.5 0.2C109.5 0.2 109.1 1.5 108.7 2.9L107.9 5.5L101.2 5.5C95.1 5.6 94.5 5.6 94.5 5.4Z" fill="#bfbfbf" fill-rule="evenodd" opacity="1" stroke="none"/>
</g>
</svg>
