<?xml version="1.0" encoding="UTF-8" standalone="no"?>
<!DOCTYPE svg PUBLIC "-//W3C//DTD SVG 1.1//EN" "http://www.w3.org/Graphics/SVG/1.1/DTD/svg11.dtd">
<!-- Created with Vectornator (http://vectornator.io/) -->
<svg height="100%" stroke-miterlimit="10" style="fill-rule:nonzero;clip-rule:evenodd;stroke-linecap:round;stroke-linejoin:round;" version="1.1" viewBox="0 0 95.2067 30.1784" width="100%" xml:space="preserve" xmlns="http://www.w3.org/2000/svg" xmlns:vectornator="http://vectornator.io" xmlns:xlink="http://www.w3.org/1999/xlink">
<defs/>
<g id="Untitled" vectornator:layerName="Untitled">
<path d="M14.1913 3.37521L7.35226 3.37521C6.8845 3.37492 6.48613 3.71517 6.41326 4.17721L3.64726 21.7142C3.62153 21.8789 3.66917 22.0466 3.77765 22.1732C3.88613 22.2997 4.04457 22.3725 4.21126 22.3722L7.47626 22.3722C7.94434 22.3724 8.34283 22.0317 8.41526 21.5692L9.16126 16.8392C9.23363 16.3771 9.63156 16.0365 10.0993 16.0362L12.2643 16.0362C16.7693 16.0362 19.3693 13.8562 20.0483 9.53621C20.3543 7.64621 20.0613 6.16121 19.1763 5.12121C18.2043 3.97921 16.4803 3.37521 14.1913 3.37521ZM14.9803 9.78021C14.6063 12.2342 12.7313 12.2342 10.9183 12.2342L9.88626 12.2342L10.6103 7.65121C10.654 7.37421 10.8928 7.17022 11.1733 7.17021L11.6463 7.17021C12.8813 7.17021 14.0463 7.17021 14.6483 7.87421C15.0073 8.29421 15.1173 8.91821 14.9803 9.78021ZM34.6343 9.70121L31.3593 9.70121C31.0788 9.70122 30.84 9.90521 30.7963 10.1822L30.6513 11.0982L30.4223 10.7662C29.7133 9.73721 28.1323 9.39321 26.5543 9.39321C22.9353 9.39321 19.8443 12.1342 19.2423 15.9792C18.9293 17.8972 19.3743 19.7312 20.4623 21.0102C21.4603 22.1862 22.8883 22.6762 24.5873 22.6762C27.5033 22.6762 29.1203 20.8012 29.1203 20.8012L28.9743 21.7112C28.9479 21.8759 28.995 22.0438 29.1031 22.1708C29.2112 22.2977 29.3695 22.371 29.5363 22.3712L32.4863 22.3712C32.9543 22.3714 33.3528 22.0307 33.4253 21.5682L35.1953 10.3592C35.2216 10.1949 35.1746 10.0273 35.0667 9.9007C34.9587 9.77408 34.8007 9.70116 34.6343 9.70121ZM30.0693 16.0752C29.7533 17.9462 28.2683 19.2022 26.3743 19.2022C25.4233 19.2022 24.6633 18.8972 24.1753 18.3192C23.6913 17.7452 23.5073 16.9282 23.6613 16.0182C23.9563 14.1632 25.4663 12.8662 27.3313 12.8662C28.2613 12.8662 29.0173 13.1752 29.5153 13.7582C30.0143 14.3472 30.2123 15.1692 30.0693 16.0752ZM52.0763 9.70121L48.7853 9.70121C48.4702 9.70171 48.1756 9.85777 47.9983 10.1182L43.4593 16.8042L41.5353 10.3792C41.414 9.97685 41.0435 9.70142 40.6233 9.70121L37.3893 9.70121C37.2051 9.70072 37.032 9.78927 36.9246 9.93892C36.8172 10.0886 36.7888 10.2809 36.8483 10.4552L40.4733 21.0932L37.0653 25.9042C36.9418 26.0781 36.9257 26.3064 37.0236 26.4959C37.1215 26.6853 37.317 26.8043 37.5303 26.8042L40.8173 26.8042C41.1288 26.8046 41.4207 26.6522 41.5983 26.3962L52.5443 10.5962C52.6652 10.422 52.6794 10.195 52.5811 10.0071C52.4828 9.81915 52.2883 9.70131 52.0763 9.70121Z" fill="#7d7d7e" fill-rule="evenodd" opacity="1" stroke="none"/>
<path d="M62.9723 3.37521L56.1323 3.37521C55.6649 3.37541 55.2671 3.71554 55.1943 4.17721L52.4283 21.7142C52.4022 21.8786 52.4495 22.0462 52.5576 22.1728C52.6657 22.2993 52.8238 22.3722 52.9903 22.3722L56.5003 22.3722C56.8274 22.3717 57.1056 22.1334 57.1563 21.8102L57.9413 16.8392C58.0136 16.3771 58.4116 16.0365 58.8793 16.0362L61.0433 16.0362C65.5493 16.0362 68.1483 13.8562 68.8283 9.53621C69.1353 7.64621 68.8403 6.16121 67.9553 5.12121C66.9843 3.97921 65.2613 3.37521 62.9723 3.37521ZM63.7613 9.78021C63.3883 12.2342 61.5133 12.2342 59.6993 12.2342L58.6683 12.2342L59.3933 7.65121C59.4362 7.37415 59.6749 7.16987 59.9553 7.17021L60.4283 7.17021C61.6623 7.17021 62.8283 7.17021 63.4303 7.87421C63.7893 8.29421 63.8983 8.91821 63.7613 9.78021ZM83.4143 9.70121L80.1413 9.70121C79.8607 9.70044 79.6218 9.90493 79.5793 10.1822L79.4343 11.0982L79.2043 10.7662C78.4953 9.73721 76.9153 9.39321 75.3373 9.39321C71.7183 9.39321 68.6283 12.1342 68.0263 15.9792C67.7143 17.8972 68.1573 19.7312 69.2453 21.0102C70.2453 22.1862 71.6713 22.6762 73.3703 22.6762C76.2863 22.6762 77.9033 20.8012 77.9033 20.8012L77.7573 21.7112C77.7309 21.8762 77.7782 22.0445 77.8868 22.1715C77.9953 22.2986 78.1542 22.3716 78.3213 22.3712L81.2703 22.3712C81.738 22.3709 82.1359 22.0303 82.2083 21.5682L83.9793 10.3592C84.0047 10.1944 83.9568 10.0267 83.8481 9.90023C83.7395 9.77372 83.581 9.70102 83.4143 9.70121ZM78.8493 16.0752C78.5353 17.9462 77.0483 19.2022 75.1543 19.2022C74.2053 19.2022 73.4433 18.8972 72.9553 18.3192C72.4713 17.7452 72.2893 16.9282 72.4413 16.0182C72.7383 14.1632 74.2463 12.8662 76.1113 12.8662C77.0413 12.8662 77.7973 13.1752 78.2953 13.7582C78.7963 14.3472 78.9943 15.1692 78.8493 16.0752ZM87.2753 3.85621L84.4683 21.7142C84.4422 21.8786 84.4895 22.0462 84.5976 22.1728C84.7057 22.2993 84.8638 22.3722 85.0303 22.3722L87.8523 22.3722C88.3213 22.3722 88.7193 22.0322 88.7913 21.5692L91.5593 4.03321C91.5853 3.86871 91.538 3.70107 91.43 3.57435C91.3219 3.44763 91.1638 3.37451 90.9973 3.37421L87.8373 3.37421C87.557 3.37521 87.3189 3.57941 87.2753 3.85621Z" fill="#c9c9c9" fill-rule="evenodd" opacity="1" stroke="none"/>
</g>
</svg>
