<?xml version="1.0" encoding="UTF-8" standalone="no"?>
<!DOCTYPE svg PUBLIC "-//W3C//DTD SVG 1.1//EN" "http://www.w3.org/Graphics/SVG/1.1/DTD/svg11.dtd">
<!-- Created with Vectornator (http://vectornator.io/) -->
<svg height="100%" stroke-miterlimit="10" style="fill-rule:nonzero;clip-rule:evenodd;stroke-linecap:round;stroke-linejoin:round;" version="1.1" viewBox="0 0 586.98 391.27" width="100%" xml:space="preserve" xmlns="http://www.w3.org/2000/svg" xmlns:vectornator="http://vectornator.io" xmlns:xlink="http://www.w3.org/1999/xlink">
<defs/>
<g id="Untitled" vectornator:layerName="Untitled">
<path d="M176.149 349.717C189.452 349.717 199.625 340.796 199.625 327.728C199.625 315.598 191.017 310.355 180.453 307.225C173.723 305.269 169.497 303.782 169.497 299.009C169.497 295.018 172.393 291.887 177.01 291.887C180.922 291.887 183.818 294.157 185.93 297.6L196.964 290.635C193.521 283.045 185.774 279.132 177.401 279.132C164.098 279.132 155.646 288.679 155.646 299.791C155.646 308.634 160.968 315.442 174.036 319.276C181.157 321.311 185.696 322.719 185.696 328.354C185.696 333.675 181.861 336.962 176.305 336.962C170.358 336.962 165.819 333.127 163.08 329.606L153.925 338.762C158.855 345.491 166.837 349.717 176.149 349.717M229.909 349.717C215.823 349.717 204.398 338.449 204.398 324.754C204.398 311.06 215.823 299.791 229.909 299.791C243.995 299.791 255.42 311.06 255.42 324.754C255.42 338.449 243.995 349.717 229.909 349.717M229.909 337.196C236.717 337.196 242.117 331.797 242.117 324.754C242.117 317.711 236.717 312.312 229.909 312.312C223.023 312.312 217.701 317.711 217.701 324.754C217.701 331.875 223.101 337.196 229.909 337.196M288.364 292.513L288.364 279.993L286.408 279.993C270.21 279.993 262.228 290.792 262.228 303.469L262.228 348.465L275.531 348.465L275.531 328.745C275.531 322.172 280.617 317.476 287.973 317.32L287.973 304.643C282.73 304.643 278.504 306.208 275.531 309.338L275.531 304.252C275.531 295.957 280.93 292.2 288.364 292.513M317.396 349.717C303.311 349.717 291.886 338.449 291.886 324.754C291.886 311.06 303.311 299.791 317.396 299.791C331.482 299.791 342.907 311.06 342.907 324.754C342.907 338.449 331.482 349.717 317.396 349.717M317.396 337.196C324.283 337.196 329.604 331.797 329.604 324.754C329.604 317.711 324.205 312.312 317.396 312.312C310.588 312.312 305.189 317.711 305.189 324.754C305.189 331.875 310.588 337.196 317.396 337.196M363.018 306.521L363.018 301.121L350.106 301.121L350.106 348.465L363.41 348.465L363.41 326.867C363.41 319.042 368.027 314.659 376.008 314.659L376.008 300.417C369.983 300.182 365.679 302.217 363.018 306.521M396.98 324.285L396.98 312.703C399.954 315.833 404.101 317.398 409.423 317.398L409.423 304.799C402.223 304.643 396.98 299.791 396.98 293.374L396.98 285.94L383.677 285.94L383.677 325.067C383.677 337.744 391.581 348.543 407.858 348.543L409.814 348.543L409.814 336.023C402.38 336.257 396.98 332.579 396.98 324.285M425.699 349.248C430.551 349.248 434.62 345.257 434.62 340.327C434.62 335.475 430.629 331.406 425.699 331.406C420.769 331.406 416.778 335.397 416.778 340.327C416.778 345.257 420.769 349.248 425.699 349.248" fill="#ffffff" fill-rule="evenodd" opacity="1" stroke="none"/>
<path d="M272.401 181.862C276.548 185.931 276.626 192.583 272.557 196.731L271.775 197.591C267.705 201.739 261.054 201.817 256.906 197.748L233.43 174.506C226.935 168.011 226.075 160.029 230.144 155.804L230.926 154.943C234.291 151.421 239.847 151.108 243.682 154.082C245.481 155.491 248.142 155.178 249.629 153.378C251.037 151.578 250.724 148.917 248.925 147.431C241.647 141.718 231.239 142.422 224.822 148.996L224.04 149.856C216.449 157.682 217.936 170.907 227.405 180.375L250.959 203.852C258.55 211.129 270.523 210.973 277.878 203.46L278.739 202.6C285.939 195.087 285.782 183.193 278.348 175.837C276.705 174.193 274.044 174.193 272.401 175.915C270.679 177.558 270.679 180.219 272.401 181.862M258.315 55.7951L267.94 134.832C268.175 137.101 270.288 138.823 272.635 138.51C274.905 138.275 276.626 136.162 276.313 133.814L266.688 54.4648L266.61 53.9953C264.967 47.4219 269.036 40.066 274.514 38.8922C277.565 38.2662 280.774 38.814 283.356 40.5356C285.939 42.2572 287.738 44.9178 288.364 47.9697L305.111 119.494C305.658 121.763 307.928 123.172 310.197 122.624C312.466 122.076 313.875 119.807 313.327 117.538L296.659 46.2481C295.642 41.0834 292.512 36.4664 288.051 33.4927C283.591 30.5191 278.035 29.5018 272.792 30.5973C262.462 32.7884 255.733 44.8395 258.315 55.7951" fill="#ffffff" fill-rule="evenodd" opacity="1" stroke="none"/>
<path d="M346.585 148.604L365.601 53.917C367.792 43.744 361.766 33.4927 351.672 30.5191C340.403 27.7019 329.056 34.2752 326.161 45.3873L305.111 117.459C304.485 119.729 305.737 122.076 308.006 122.702C310.275 123.328 312.623 122.076 313.249 119.807L334.299 47.6567C336.099 41.0051 342.829 37.0141 349.402 38.6575C355.036 40.3791 358.558 46.2481 357.306 52.1954L338.29 146.961C337.821 149.23 339.307 151.5 341.577 151.969C343.924 152.361 346.194 150.874 346.585 148.604M298.772 239.849C268.644 239.849 243.525 217.781 243.525 186.401C243.525 184.053 241.647 182.175 239.299 182.175C236.952 182.175 235.074 184.053 235.074 186.401C235.074 222.711 264.262 248.3 298.772 248.3C301.12 248.3 302.998 246.422 302.998 244.074C302.998 241.727 301.12 239.849 298.772 239.849M283.904 166.055C283.278 168.403 281.791 170.515 279.756 171.846L278.817 172.394C273.966 175.68 267.392 174.428 264.106 169.576L245.638 142.109C240.63 134.44 241.256 126.458 246.107 123.094L246.968 122.468C253.229 118.868 258.472 121.607 263.871 129.51L279.287 152.517C280.617 154.473 283.2 154.943 285.156 153.691C287.112 152.439 287.582 149.778 286.33 147.822L270.914 124.815C263.245 113.703 253.855 108.773 242.508 115.346L241.334 116.129C232.257 122.311 231.161 135.614 238.595 146.805L257.063 174.35C263.01 183.036 274.748 185.305 283.434 179.436L284.373 178.81C288.051 176.306 290.712 172.55 291.964 168.246C292.59 165.977 291.26 163.707 288.99 163.081C286.799 162.455 284.53 163.786 283.904 166.055" fill="#ffffff" fill-rule="evenodd" opacity="1" stroke="none"/>
<path d="M311.84 179.984C303.076 184.914 297.598 194.07 296.972 208.077C296.816 210.425 298.616 212.381 300.963 212.538C303.311 212.616 305.267 210.895 305.424 208.547C306.05 195.87 310.98 189.062 318.883 186.088C323.109 184.523 327.726 184.21 331.795 184.601L332.812 184.758C338.212 185.775 339.933 177.715 334.534 176.463L302.059 169.185C286.878 165.038 284.53 159.403 287.347 150.013C288.599 145.944 291.025 143.831 294.859 142.97C297.364 142.422 300.102 142.501 302.763 142.97C303.546 143.127 304.093 143.205 304.328 143.283L353.628 154.786L354.567 155.099C355.349 155.412 356.21 156.038 357.071 156.899C360.358 160.421 362.236 167.072 361.297 178.028C358.088 216.372 340.247 240.162 297.833 239.77C295.485 239.77 293.607 241.648 293.607 243.918C293.607 246.265 295.485 248.143 297.755 248.143C345.333 248.535 366.148 220.911 369.67 178.654C370.765 165.507 368.34 156.508 363.253 151.108C360.436 148.135 357.462 146.726 355.193 146.413L306.441 135.066C306.128 134.988 305.345 134.753 304.25 134.597C300.572 133.971 296.738 133.893 292.981 134.675C286.408 136.162 281.4 140.309 279.287 147.509C275.218 161.047 279.522 171.689 300.024 177.245L311.84 179.984Z" fill="#ffffff" fill-rule="evenodd" opacity="1" stroke="none"/>
</g>
</svg>
