<?xml version="1.0" encoding="UTF-8" standalone="no"?>
<!DOCTYPE svg PUBLIC "-//W3C//DTD SVG 1.1//EN" "http://www.w3.org/Graphics/SVG/1.1/DTD/svg11.dtd">
<!-- Created with Vectornator (http://vectornator.io/) -->
<svg height="100%" stroke-miterlimit="10" style="fill-rule:nonzero;clip-rule:evenodd;stroke-linecap:round;stroke-linejoin:round;" version="1.1" viewBox="0 0 643.937 446.884" width="100%" xml:space="preserve" xmlns="http://www.w3.org/2000/svg" xmlns:vectornator="http://vectornator.io" xmlns:xlink="http://www.w3.org/1999/xlink">
<defs/>
<g id="Untitled" vectornator:layerName="Untitled">
<path d="M230.698 423.442C416.367 423.442 517.903 269.566 517.903 136.13C517.903 131.76 517.814 127.41 517.617 123.078C537.373 108.777 554.424 91.0705 567.969 70.7881C549.882 78.8321 530.419 84.2461 510.001 86.6871C530.842 74.1861 546.841 54.4091 554.39 30.8351C534.574 42.594 512.897 50.8834 490.292 55.3461C471.872 35.7181 445.648 23.4421 416.61 23.4421C360.866 23.4421 315.662 68.6641 315.662 124.407C315.662 132.332 316.549 140.038 318.281 147.432C234.386 143.209 159.994 103.027 110.207 41.9281C101.24 57.3384 96.523 74.8526 96.5386 92.682C96.5386 127.716 114.359 158.643 141.459 176.737C125.429 176.247 109.751 171.916 95.7426 164.107C95.7276 164.531 95.7276 164.944 95.7276 165.397C95.7276 214.3 130.522 255.131 176.71 264.383C168.035 266.746 159.084 267.941 150.093 267.936C143.6 267.936 137.272 267.297 131.122 266.116C143.973 306.238 181.237 335.435 225.418 336.251C190.869 363.34 147.348 379.475 100.047 379.475C92.0001 379.482 83.9602 379.015 75.9686 378.076C120.643 406.721 173.689 423.435 230.703 423.435" fill="#dddddd" fill-rule="evenodd" opacity="1" stroke="none"/>
</g>
</svg>
