<?xml version="1.0" encoding="UTF-8" standalone="no"?>
<!DOCTYPE svg PUBLIC "-//W3C//DTD SVG 1.1//EN" "http://www.w3.org/Graphics/SVG/1.1/DTD/svg11.dtd">
<!-- Created with Vectornator (http://vectornator.io/) -->
<svg height="100%" stroke-miterlimit="10" style="fill-rule:nonzero;clip-rule:evenodd;stroke-linecap:round;stroke-linejoin:round;" version="1.1" viewBox="0 0 39.4 48.3" width="100%" xml:space="preserve" xmlns="http://www.w3.org/2000/svg" xmlns:vectornator="http://vectornator.io" xmlns:xlink="http://www.w3.org/1999/xlink">
<defs/>
<clipPath id="ArtboardFrame">
<rect height="48.3" width="39.4" x="0" y="0"/>
</clipPath>
<g clip-path="url(#ArtboardFrame)" id="Untitled" vectornator:layerName="Untitled">
<path d="M19.7 46.5C20.1 46.3 30.5 41.8 33.8 39.1C37.2 36.3 39 32.3 39 27.5L39 5L38.7 4.9C30.4 0.4 20.1 0.7 19.6 0.7C19.2 0.7 8.9 0.4 0.6 4.9L0.4 5L0.4 27.6C0.4 32.4 2.2 36.4 5.6 39.2C8.9 41.9 19.3 46.4 19.7 46.5" fill="#4d4d4d" fill-rule="evenodd" opacity="1" stroke="none"/>
<path d="M19.7278 47.0089C19.7278 47.0089 8.72782 42.2089 5.32782 39.5089C1.72782 36.5089 0.0278172 32.4089 0.0278172 27.7089L0.0278172 4.30888C8.72782-0.391122 19.7278 0.00887783 19.7278 0.00887783C19.7278 0.00887783 30.7278-0.391122 39.4278 4.30888L39.4278 27.6089C39.4278 32.3089 37.7278 36.4089 34.1278 39.4089C30.7278 42.2089 19.7278 47.0089 19.7278 47.0089M1.62782 27.7089C1.62782 32.1089 3.22782 35.7089 6.32782 38.2089C9.12782 40.5089 17.4278 44.2089 19.7278 45.2089C22.0278 44.2089 30.4278 40.4089 33.1278 38.2089C36.2278 35.7089 37.8278 32.0089 37.8278 27.7089L37.8278 4.70888C26.2278 3.60888 12.4278 4.20888 1.62782 14.2089C1.62782 14.2089 1.62782 27.7089 1.62782 27.7089Z" fill="#cecdcc" fill-rule="evenodd" opacity="1" stroke="none"/>
<path d="M30.8 24.4C32.3 25.3 32.9 25.9 33 27C33 28.2 32.2 28.9 30.9 28.9C29.8 28.9 28.5 28.3 27.6 27.5L27.6 30.7C28.7 31.3 30 31.8 31.4 31.8C34.8 31.8 36.4 29.4 36.4 27.2C36.5 25.2 35.9 23.6 33 21.9C31.7 21.1 30.7 20.6 30.7 19.4C30.7 18.2 31.8 17.7 32.7 17.7C33.9 17.7 35.1 18.4 35.8 19.1L35.8 16.1C35.2 15.6 33.9 14.9 32 15C29.7 15.1 27.3 16.7 27.3 19.5C27.4 21.4 28 22.8 30.8 24.4M19 31.6C19.3 31.7 19.8 31.8 20.6 31.8C24.5 31.8 26.7 28.3 26.7 23.3C26.7 18.2 24.4 15.1 20.3 15.1C18.4 15.1 16.9 15.5 15.6 16.3L15.6 38.9L19 38.9C19 38.9 19 31.6 19 31.6ZM19 18C19.3 17.9 19.8 17.7 20.2 17.7C22.2 17.7 23 19.3 23 23.2C23 27 22 28.8 20 28.8C19.5 28.8 19.1 28.7 18.9 28.6L18.9 18L19 18ZM8.5 31.8C10.6 31.8 12.4 31.3 13.7 30.4L13.7 15.3L10.2 15.3L10.2 28.4C9.8 28.7 9.3 28.8 8.6 28.8C7 28.8 6.8 27.3 6.8 26.4L6.8 15.3L3.3 15.3L3.3 26.2C3.3 29.9 5.1 31.8 8.5 31.8M31.8 45.3L31.8 47.6L32.2 47.6L32.2 46.7L32.3 46.7L32.9 47.6L33.4 47.6C33.4 47.6 32.8 46.7 32.7 46.6C33 46.5 33.2 46.3 33.2 46C33.2 45.7 33 45.3 32.4 45.3C32.4 45.3 31.8 45.3 31.8 45.3ZM32.4 45.6C32.7 45.6 32.8 45.8 32.8 45.9C32.8 46.1 32.7 46.3 32.3 46.3L32.2 46.3L32.2 45.6C32.2 45.6 32.4 45.6 32.4 45.6Z" fill="#cecdcc" fill-rule="evenodd" opacity="1" stroke="none"/>
<path d="M34 46.4C34 47.2 33.3 47.9 32.5 47.9C31.7 47.9 31 47.2 31 46.4C31 45.6 31.7 44.9 32.5 44.9C33.4 44.9 34 45.6 34 46.4M32.5 44.5C31.5 44.5 30.6 45.3 30.6 46.4C30.6 47.4 31.4 48.3 32.5 48.3C33.5 48.3 34.4 47.5 34.4 46.4C34.4 45.4 33.5 44.5 32.5 44.5" fill="#cecdcc" fill-rule="evenodd" opacity="1" stroke="none"/>
</g>
</svg>
