<?xml version="1.0" encoding="UTF-8" standalone="no"?>
<!DOCTYPE svg PUBLIC "-//W3C//DTD SVG 1.1//EN" "http://www.w3.org/Graphics/SVG/1.1/DTD/svg11.dtd">
<!-- Created with Vectornator (http://vectornator.io/) -->
<svg height="100%" stroke-miterlimit="10" style="fill-rule:nonzero;clip-rule:evenodd;stroke-linecap:round;stroke-linejoin:round;" version="1.1" viewBox="0 0 141.732 141.732" width="100%" xml:space="preserve" xmlns="http://www.w3.org/2000/svg" xmlns:vectornator="http://vectornator.io" xmlns:xlink="http://www.w3.org/1999/xlink">
<defs/>
<g id="Untitled" vectornator:layerName="Untitled">
<path d="M62.935 89.571L53.202 89.571L59.285 52.187L69.019 52.187L62.935 89.571ZM45.014 52.187L35.735 77.9L34.637 72.363L34.638 72.365L31.363 55.553C31.363 55.553 30.967 52.187 26.746 52.187L11.406 52.187L11.226 52.82C11.226 52.82 15.917 53.796 21.407 57.093L29.863 89.572L40.004 89.572L55.489 52.187C55.489 52.187 45.014 52.187 45.014 52.187ZM121.569 89.571L130.506 89.571L122.714 52.186L114.89 52.186C111.277 52.186 110.397 54.972 110.397 54.972L95.881 89.571L106.027 89.571L108.056 84.018L120.429 84.018C120.429 84.018 121.569 89.571 121.569 89.571ZM110.859 76.347L115.973 62.357L118.85 76.347C118.85 76.347 110.859 76.347 110.859 76.347ZM96.642 61.177L98.031 53.149C98.031 53.149 93.745 51.519 89.277 51.519C84.447 51.519 72.977 53.63 72.977 63.895C72.977 73.553 86.439 73.673 86.439 78.746C86.439 83.819 74.364 82.91 70.379 79.711L68.932 88.105C68.932 88.105 73.278 90.216 79.918 90.216C86.56 90.216 96.58 86.777 96.58 77.417C96.58 67.697 82.997 66.792 82.997 62.566C82.998 58.339 92.477 58.882 96.642 61.177Z" fill="#ffffff" fill-rule="evenodd" opacity="1" stroke="none"/>
<path d="M34.638 72.364L31.363 55.552C31.363 55.552 30.967 52.186 26.746 52.186L11.406 52.186L11.226 52.819C11.226 52.819 18.599 54.347 25.671 60.072C32.433 65.544 34.638 72.364 34.638 72.364Z" fill="#ffffff" fill-rule="evenodd" opacity="1" stroke="none"/>
</g>
</svg>
