<?xml version="1.0" encoding="UTF-8" standalone="no"?>
<!DOCTYPE svg PUBLIC "-//W3C//DTD SVG 1.1//EN" "http://www.w3.org/Graphics/SVG/1.1/DTD/svg11.dtd">
<!-- Created with Vectornator (http://vectornator.io/) -->
<svg height="100%" stroke-miterlimit="10" style="fill-rule:nonzero;clip-rule:evenodd;stroke-linecap:round;stroke-linejoin:round;" version="1.1" viewBox="0 0 2498 2532.77" width="100%" xml:space="preserve" xmlns="http://www.w3.org/2000/svg" xmlns:vectornator="http://vectornator.io" xmlns:xlink="http://www.w3.org/1999/xlink">
<defs/>
<g id="Untitled" vectornator:layerName="Untitled">
<path d="M1304.02 2123.03L794.536 2113.72C629.578 2110.47 464.209 2116.95 302.485 2083.31C56.466 2033.05 39.0372 1786.62 20.7997 1579.92C-4.3297 1289.31 5.39862 993.43 52.821 705.251C79.5926 543.552 184.949 447.065 347.88 436.565C897.89 398.46 1451.56 402.976 2000.35 420.753C2058.31 422.383 2116.67 431.29 2173.82 441.429C2455.93 490.879 2462.81 770.139 2481.09 1005.22C2499.33 1242.73 2491.63 1481.46 2456.77 1717.36C2428.81 1912.67 2375.3 2076.46 2149.5 2092.27C1866.58 2112.94 1590.16 2129.59 1306.44 2124.29C1306.45 2123.03 1304.82 2123.03 1304.02 2123.03ZM1004.49 1628.56C1217.69 1506.14 1426.83 1385.77 1638.81 1264.18C1425.21 1141.77 1216.47 1021.4 1004.49 899.804L1004.49 1628.56Z" fill="#ebebeb" fill-rule="evenodd" opacity="1" stroke="none"/>
</g>
</svg>
